<svg width="32" height="32" viewBox="0 0 32 32" fill="none" xmlns="http://www.w3.org/2000/svg">
<g clip-path="url(#clip0_30_353)">
<circle cx="16" cy="16" r="16" fill="white"/>
<path d="M24.1667 12.6667H23.21L21.2267 7.20667C21.0625 6.75646 20.7642 6.36743 20.372 6.09206C19.9798 5.81668 19.5125 5.66821 19.0333 5.66667H17.1667C16.525 5.66667 16 6.19167 16 6.83334C16 7.47501 16.525 8.00001 17.1667 8.00001H19.0333L20.7367 12.6667H15.125L14.705 11.5H14.81C15.4517 11.5 15.9767 10.975 15.9767 10.3333C15.9767 9.69167 15.4517 9.16667 14.81 9.16667H11.3333C10.6917 9.16667 10.1667 9.69167 10.1667 10.3333C10.1667 10.975 10.6917 11.5 11.3333 11.5H12.2083L14.3317 17.3333H13.55C13.0367 14.7317 10.855 12.8067 8.125 12.6783C4.85833 12.515 2 15.2333 2 18.5C2 21.7667 4.56667 24.3333 7.83333 24.3333C10.7033 24.3333 13.025 22.3617 13.55 19.6667H18.45C18.9633 22.2683 21.145 24.1933 23.875 24.3217C27.1417 24.4733 30 21.7667 30 18.4883C30 15.2333 27.4333 12.6667 24.1667 12.6667ZM9 19.6667H11.1233C10.6333 21.1017 9.25667 22.0933 7.6 21.9883C5.86167 21.8833 4.415 20.4133 4.33333 18.6633C4.25167 16.6217 5.815 15 7.83333 15C9.385 15 10.6567 15.9683 11.1233 17.3333H9C8.35833 17.3333 7.83333 17.8583 7.83333 18.5C7.83333 19.1417 8.35833 19.6667 9 19.6667ZM18.45 17.3333H16.8167L15.965 15H19.5C18.9867 15.6767 18.6133 16.4583 18.45 17.3333ZM24.0267 22C22.23 21.93 20.7133 20.4017 20.6667 18.5933C20.6433 17.4733 21.1217 16.4933 21.8917 15.84L22.615 17.8233C22.8367 18.43 23.5017 18.745 24.1083 18.5233C24.715 18.3017 25.03 17.6367 24.8083 17.03L24.0733 15.0117L24.085 15C24.5528 14.9841 25.0189 15.0631 25.4553 15.2323C25.8916 15.4015 26.2892 15.6573 26.6239 15.9844C26.9587 16.3116 27.2237 16.7031 27.4029 17.1355C27.5821 17.5678 27.6718 18.032 27.6667 18.5C27.6667 20.5067 26.0567 22.07 24.0267 22Z" fill="url(#paint0_linear_30_353)"/>
</g>
<defs>
<linearGradient id="paint0_linear_30_353" x1="15.9674" y1="5.66667" x2="16.3225" y2="24.3278" gradientUnits="userSpaceOnUse">
<stop stop-color="#FFB60D"/>
<stop offset="1" stop-color="#E59317"/>
</linearGradient>
<clipPath id="clip0_30_353">
<rect width="32" height="32" fill="white"/>
</clipPath>
</defs>
</svg>
