<svg xmlns="http://www.w3.org/2000/svg" width="52" height="52" fill="none"><path fill="#e6a40b" d="M48 14a2 2 0 1 1 4 0 2 2 0 0 1-4 0M48 2a2 2 0 1 1 4 0 2 2 0 0 1-4 0M36 26a2 2 0 1 1 4 0 2 2 0 0 1-4 0M36 38a2 2 0 1 1 4 0 2 2 0 0 1-4 0M36 14a2 2 0 1 1 4 0 2 2 0 0 1-4 0M36 2a2 2 0 1 1 4 0 2 2 0 0 1-4 0M24 26a2 2 0 1 1 4 0 2 2 0 0 1-4 0M24 38a2 2 0 1 1 4 0 2 2 0 0 1-4 0M24 14a2 2 0 1 1 4 0 2 2 0 0 1-4 0M24 2a2 2 0 1 1 4 0 2 2 0 0 1-4 0M12 50a2 2 0 1 1 4 0 2 2 0 0 1-4 0M12 26a2 2 0 1 1 4 0 2 2 0 0 1-4 0M12 38a2 2 0 1 1 4 0 2 2 0 0 1-4 0M12 14a2 2 0 1 1 4 0 2 2 0 0 1-4 0M12 2a2 2 0 1 1 4 0 2 2 0 0 1-4 0M0 50a2 2 0 1 1 4 0 2 2 0 0 1-4 0M0 26a2 2 0 1 1 4 0 2 2 0 0 1-4 0M0 38a2 2 0 1 1 4 0 2 2 0 0 1-4 0M0 14a2 2 0 1 1 4 0 2 2 0 0 1-4 0M0 2a2 2 0 1 1 4 0 2 2 0 0 1-4 0"/></svg>