<svg xmlns="http://www.w3.org/2000/svg" width="52" height="52" fill="none"><path fill="#e6a40b" d="M4 38a2 2 0 1 1-4 0 2 2 0 0 1 4 0M4 50a2 2 0 1 1-4 0 2 2 0 0 1 4 0M16 26a2 2 0 1 1-4 0 2 2 0 0 1 4 0M16 14a2 2 0 1 1-4 0 2 2 0 0 1 4 0M16 38a2 2 0 1 1-4 0 2 2 0 0 1 4 0M16 50a2 2 0 1 1-4 0 2 2 0 0 1 4 0M28 26a2 2 0 1 1-4 0 2 2 0 0 1 4 0M28 14a2 2 0 1 1-4 0 2 2 0 0 1 4 0M28 38a2 2 0 1 1-4 0 2 2 0 0 1 4 0M28 50a2 2 0 1 1-4 0 2 2 0 0 1 4 0M40 2a2 2 0 1 1-4 0 2 2 0 0 1 4 0M40 26a2 2 0 1 1-4 0 2 2 0 0 1 4 0M40 14a2 2 0 1 1-4 0 2 2 0 0 1 4 0M40 38a2 2 0 1 1-4 0 2 2 0 0 1 4 0M40 50a2 2 0 1 1-4 0 2 2 0 0 1 4 0M52 2a2 2 0 1 1-4 0 2 2 0 0 1 4 0M52 26a2 2 0 1 1-4 0 2 2 0 0 1 4 0M52 14a2 2 0 1 1-4 0 2 2 0 0 1 4 0M52 38a2 2 0 1 1-4 0 2 2 0 0 1 4 0M52 50a2 2 0 1 1-4 0 2 2 0 0 1 4 0"/></svg>