<svg width="35" height="32" viewBox="0 0 35 32" fill="none" xmlns="http://www.w3.org/2000/svg">
<path d="M27.6364 8.72727H26.4436L23.9709 1.92C23.7662 1.3587 23.3943 0.873674 22.9053 0.530351C22.4163 0.187028 21.8338 0.00192236 21.2364 0H18.9091C18.1091 0 17.4545 0.654545 17.4545 1.45455C17.4545 2.25455 18.1091 2.90909 18.9091 2.90909H21.2364L23.36 8.72727H16.3636L15.84 7.27273H15.9709C16.7709 7.27273 17.4255 6.61818 17.4255 5.81818C17.4255 5.01818 16.7709 4.36364 15.9709 4.36364H11.6364C10.8364 4.36364 10.1818 5.01818 10.1818 5.81818C10.1818 6.61818 10.8364 7.27273 11.6364 7.27273H12.7273L15.3745 14.5455H14.4C13.76 11.3018 11.04 8.90182 7.63636 8.74182C3.56364 8.53818 0 11.9273 0 16C0 20.0727 3.2 23.2727 7.27273 23.2727C10.8509 23.2727 13.7455 20.8145 14.4 17.4545H20.5091C21.1491 20.6982 23.8691 23.0982 27.2727 23.2582C31.3455 23.4473 34.9091 20.0727 34.9091 15.9855C34.9091 11.9273 31.7091 8.72727 27.6364 8.72727ZM8.72727 17.4545H11.3745C10.7636 19.2436 9.04727 20.48 6.98182 20.3491C4.81455 20.2182 3.01091 18.3855 2.90909 16.2036C2.80727 13.6582 4.75636 11.6364 7.27273 11.6364C9.20727 11.6364 10.7927 12.8436 11.3745 14.5455H8.72727C7.92727 14.5455 7.27273 15.2 7.27273 16C7.27273 16.8 7.92727 17.4545 8.72727 17.4545ZM20.5091 14.5455H18.4727L17.4109 11.6364H21.8182C21.1782 12.48 20.7127 13.4545 20.5091 14.5455ZM27.4618 20.3636C25.2218 20.2764 23.3309 18.3709 23.2727 16.1164C23.2436 14.72 23.84 13.4982 24.8 12.6836L25.7018 15.1564C25.9782 15.9127 26.8073 16.3055 27.5636 16.0291C28.32 15.7527 28.7127 14.9236 28.4364 14.1673L27.52 11.6509L27.5345 11.6364C28.1177 11.6165 28.6989 11.715 29.2429 11.9259C29.787 12.1369 30.2826 12.4559 30.7 12.8637C31.1173 13.2715 31.4477 13.7597 31.6711 14.2987C31.8946 14.8378 32.0064 15.4165 32 16C32 18.5018 29.9927 20.4509 27.4618 20.3636ZM16 27.6364H10.1818L18.9091 32V29.0909H24.7273L16 24.7273V27.6364Z" fill="url(#paint0_linear_26_297)"/>
<defs>
<linearGradient id="paint0_linear_26_297" x1="17.4139" y1="1.31819e-06" x2="18.2508" y2="31.9802" gradientUnits="userSpaceOnUse">
<stop stop-color="#FFBF00"/>
<stop offset="1" stop-color="#F2A50C"/>
</linearGradient>
</defs>
</svg>
