<svg width="30" height="25" viewBox="0 0 30 25" fill="none" xmlns="http://www.w3.org/2000/svg">
<path d="M21.8182 19.3891C19.8545 19.3891 18.6182 20 17.5273 20.5527C16.5818 21.0327 15.8109 21.4255 14.5455 21.4255C13.2364 21.4255 12.5091 21.0618 11.5636 20.5527C10.4727 20 9.28 19.3891 7.27273 19.3891C5.26545 19.3891 4.07273 20 2.98182 20.5527C2.35636 20.8727 1.80364 21.1491 1.13455 21.3091C0.48 21.4545 0 21.9782 0 22.6327V22.7782C0 23.6509 0.814546 24.2764 1.65818 24.1018C2.73455 23.8836 3.54909 23.4764 4.29091 23.0982C5.23636 22.6182 5.99273 22.2255 7.27273 22.2255C8.55273 22.2255 9.30909 22.5891 10.2545 23.0982C11.3455 23.6509 12.5382 24.2618 14.5455 24.2618C16.5527 24.2618 17.7455 23.6509 18.8364 23.0982C19.7818 22.6182 20.5527 22.2255 21.8182 22.2255C23.1273 22.2255 23.8545 22.5891 24.8 23.0982C25.5564 23.4764 26.3709 23.8982 27.4618 24.1164C27.6583 24.1547 27.8609 24.1495 28.0551 24.1009C28.2493 24.0524 28.4306 23.9618 28.586 23.8356C28.7413 23.7093 28.8671 23.5505 28.9544 23.3703C29.0416 23.1901 29.0882 22.9929 29.0909 22.7927V22.6618C29.0909 21.9927 28.5964 21.4691 27.9418 21.3236C27.2727 21.1782 26.7345 20.9018 26.1091 20.5673C25.0182 20 23.7818 19.3891 21.8182 19.3891ZM21.8182 12.9164C19.8545 12.9164 18.6182 13.5418 17.5273 14.08C16.5818 14.5455 15.8109 14.9527 14.5455 14.9527C13.2364 14.9527 12.5091 14.5891 11.5636 14.08C10.4727 13.5273 9.28 12.9164 7.27273 12.9164C5.26545 12.9164 4.07273 13.5418 2.98182 14.08C2.35636 14.3855 1.80364 14.6764 1.12 14.8364C0.48 14.9818 0 15.5055 0 16.16V16.3055C8.3124e-05 16.5065 0.0449781 16.705 0.131419 16.8865C0.21786 17.068 0.343673 17.228 0.499707 17.3548C0.655741 17.4815 0.838072 17.5719 1.03344 17.6194C1.2288 17.6669 1.43229 17.6702 1.62909 17.6291C2.72 17.4109 3.53455 16.9891 4.29091 16.6255C5.23636 16.1164 5.96364 15.7527 7.27273 15.7527C8.58182 15.7527 9.30909 16.1164 10.2545 16.6255C11.3455 17.1782 12.5382 17.7891 14.5455 17.7891C16.5527 17.7891 17.7455 17.1636 18.8364 16.6255C19.7818 16.1164 20.5091 15.7527 21.8182 15.7527C23.1273 15.7527 23.8545 16.1164 24.8 16.6255C25.5564 17.0036 26.3709 17.4255 27.4618 17.6436C27.6595 17.6822 27.8633 17.6766 28.0586 17.6273C28.2539 17.5779 28.4359 17.486 28.5915 17.3582C28.7472 17.2303 28.8726 17.0697 28.959 16.8877C29.0453 16.7057 29.0904 16.5069 29.0909 16.3055V16.1745C29.0909 15.5055 28.5964 14.9818 27.9418 14.8364C27.2727 14.6909 26.7345 14.4145 26.1091 14.08C25.0182 13.5273 23.7818 12.9164 21.8182 12.9164ZM26.1091 1.16364C25.0182 0.610909 23.8109 0 21.8182 0C19.8255 0 18.6182 0.610909 17.5273 1.16364C16.5818 1.62909 15.8109 2.03636 14.5455 2.03636C13.2364 2.03636 12.5091 1.67273 11.5636 1.16364C10.4727 0.625454 9.28 0 7.27273 0C5.26545 0 4.07273 0.610909 2.98182 1.16364C2.35636 1.48364 1.80364 1.76 1.13455 1.92C0.48 2.06545 0 2.58909 0 3.24364V3.34545C0 4.21818 0.785454 4.85818 1.62909 4.68364C2.72 4.46545 3.53455 4.04364 4.29091 3.68C5.23636 3.2 5.99273 2.80727 7.27273 2.80727C8.55273 2.80727 9.30909 3.17091 10.2545 3.68C11.3455 4.23273 12.5382 4.84364 14.5455 4.84364C16.5527 4.84364 17.7455 4.21818 18.8364 3.68C19.7818 3.21455 20.5527 2.80727 21.8182 2.80727C23.1273 2.80727 23.8545 3.17091 24.8 3.68C25.5564 4.05818 26.3709 4.48 27.4618 4.69818C27.6595 4.73675 27.8633 4.73117 28.0586 4.68182C28.2539 4.63248 28.4359 4.54059 28.5915 4.41274C28.7472 4.28489 28.8726 4.12422 28.959 3.94223C29.0453 3.76024 29.0904 3.56143 29.0909 3.36V3.22909C29.0909 2.56 28.5964 2.03636 27.9418 1.89091C27.2727 1.74545 26.7345 1.48364 26.1091 1.16364ZM21.8182 6.44364C19.8545 6.44364 18.6182 7.06909 17.5273 7.60727C16.5818 8.11636 15.8545 8.48 14.5455 8.48C13.2364 8.48 12.5091 8.11636 11.5636 7.60727C10.4727 7.05455 9.28 6.44364 7.27273 6.44364C5.26545 6.44364 4.07273 7.06909 2.98182 7.60727C2.35636 7.94182 1.81818 8.21818 1.14909 8.36364C0.494545 8.50909 0 9.03273 0 9.70182V9.83273C8.3124e-05 10.0338 0.0449781 10.2323 0.131419 10.4138C0.21786 10.5953 0.343673 10.7553 0.499707 10.882C0.655741 11.0088 0.838072 11.0992 1.03344 11.1467C1.2288 11.1941 1.43229 11.1974 1.62909 11.1564C2.72 10.9382 3.53455 10.5164 4.29091 10.1527C5.23636 9.68727 6.00727 9.28 7.27273 9.28C8.53818 9.28 9.30909 9.64364 10.2545 10.1527C11.3455 10.7055 12.5382 11.3164 14.5455 11.3164C16.5527 11.3164 17.7455 10.6909 18.8364 10.1527C19.7818 9.68727 20.5527 9.28 21.8182 9.28C23.1273 9.28 23.8545 9.64364 24.8 10.1527C25.5564 10.5309 26.3709 10.9527 27.4618 11.1709C27.6583 11.2093 27.8609 11.204 28.0551 11.1555C28.2493 11.107 28.4306 11.0164 28.586 10.8901C28.7413 10.7639 28.8671 10.605 28.9544 10.4248C29.0416 10.2446 29.0882 10.0475 29.0909 9.84727V9.71636C29.0909 9.04727 28.5964 8.52364 27.9418 8.37818C27.2727 8.23273 26.7345 7.95636 26.1091 7.62182C25.0182 7.05454 23.7818 6.44364 21.8182 6.44364Z" fill="url(#paint0_linear_26_295)"/>
<defs>
<linearGradient id="paint0_linear_26_295" x1="14.5115" y1="9.99431e-07" x2="15.0889" y2="24.2497" gradientUnits="userSpaceOnUse">
<stop stop-color="#FFBF00"/>
<stop offset="1" stop-color="#F2A50C"/>
</linearGradient>
</defs>
</svg>
