<svg width="24" height="31" viewBox="0 0 24 31" fill="none" xmlns="http://www.w3.org/2000/svg">
<path d="M20.3636 10.1818H18.9091V7.27273C18.9091 3.25818 15.6509 0 11.6364 0C7.62182 0 4.36364 3.25818 4.36364 7.27273V10.1818H2.90909C1.30909 10.1818 0 11.4909 0 13.0909V27.6364C0 29.2364 1.30909 30.5455 2.90909 30.5455H20.3636C21.9636 30.5455 23.2727 29.2364 23.2727 27.6364V13.0909C23.2727 11.4909 21.9636 10.1818 20.3636 10.1818ZM11.6364 23.2727C10.0364 23.2727 8.72727 21.9636 8.72727 20.3636C8.72727 18.7636 10.0364 17.4545 11.6364 17.4545C13.2364 17.4545 14.5455 18.7636 14.5455 20.3636C14.5455 21.9636 13.2364 23.2727 11.6364 23.2727ZM7.27273 10.1818V7.27273C7.27273 4.85818 9.22182 2.90909 11.6364 2.90909C14.0509 2.90909 16 4.85818 16 7.27273V10.1818H7.27273Z" fill="url(#paint0_linear_26_301)"/>
<defs>
<linearGradient id="paint0_linear_26_301" x1="11.6092" y1="1.25828e-06" x2="12.7523" y2="30.5047" gradientUnits="userSpaceOnUse">
<stop stop-color="#FFBF00"/>
<stop offset="1" stop-color="#F2A50C"/>
</linearGradient>
</defs>
</svg>
