<svg width="30" height="24" viewBox="0 0 30 24" fill="none" xmlns="http://www.w3.org/2000/svg">
<path d="M25.3977 8.75533C25.2542 8.96737 25.1692 9.21353 25.1514 9.46893C25.1335 9.72432 25.1833 9.97992 25.2959 10.2099C25.6566 11.0521 25.9112 11.9364 26.0522 12.8426C26.4267 15.1846 26.0765 17.5851 25.0486 19.7226C24.9238 19.9571 24.7371 20.1528 24.5089 20.2887C24.2807 20.4246 24.0197 20.4955 23.7541 20.4935H5.35406C5.08697 20.4941 4.82488 20.4211 4.59653 20.2825C4.36817 20.144 4.18238 19.9452 4.05952 19.7081C3.12843 17.8192 2.72736 15.7132 2.89906 13.6143C3.07075 11.5155 3.80879 9.50262 5.03447 7.79024C6.26016 6.07786 7.92756 4.73018 9.85891 3.89088C11.7903 3.05159 13.9132 2.75212 16.0013 3.02442C17.0579 3.14861 18.0913 3.42289 19.0704 3.83897C19.3004 3.95151 19.556 4.00136 19.8114 3.98348C20.0668 3.9656 20.3129 3.88063 20.525 3.73715C20.7459 3.59161 20.9229 3.38858 21.037 3.14991C21.1512 2.91125 21.198 2.64598 21.1726 2.38266C21.1471 2.11934 21.0504 1.86794 20.8927 1.65552C20.735 1.44311 20.5224 1.27771 20.2777 1.17715C17.4678 -0.0277123 14.3497 -0.316541 11.3663 0.351693C8.38289 1.01993 5.68591 2.61124 3.65843 4.8996C1.63096 7.18795 0.3761 10.057 0.0720988 13.0992C-0.231902 16.1413 0.430416 19.2019 1.96497 21.8462C2.21881 22.2859 2.58328 22.6515 3.02218 22.9067C3.46108 23.1619 3.95912 23.2977 4.46679 23.3008H24.6122C25.1249 23.3028 25.6289 23.1694 26.0733 22.9139C26.5178 22.6585 26.8869 22.2902 27.1432 21.8462C28.2666 19.8992 28.9235 17.7184 29.0623 15.4748C29.2011 13.2312 28.8181 10.986 27.9432 8.91533C27.8323 8.67935 27.6601 8.47748 27.4446 8.33086C27.229 8.18424 26.978 8.09825 26.7178 8.08189C26.4576 8.06554 26.1978 8.11942 25.9655 8.23789C25.7333 8.35636 25.5372 8.53508 25.3977 8.75533Z" fill="url(#paint0_linear_26_308)"/>
<path d="M12.4951 12.5226C11.9492 13.0685 11.6426 13.8089 11.6426 14.5808C11.6426 14.9631 11.7179 15.3416 11.8641 15.6947C12.0104 16.0478 12.2248 16.3687 12.4951 16.639C12.7654 16.9093 13.0863 17.1237 13.4394 17.27C13.7925 17.4162 14.171 17.4915 14.5533 17.4915C15.3253 17.4915 16.0656 17.1849 16.6115 16.639L24.8442 4.28992L12.4951 12.5226Z" fill="url(#paint1_linear_26_308)"/>
<defs>
<linearGradient id="paint0_linear_26_308" x1="14.5111" y1="9.59843e-07" x2="15.0437" y2="23.2902" gradientUnits="userSpaceOnUse">
<stop stop-color="#FFBF00"/>
<stop offset="1" stop-color="#F2A50C"/>
</linearGradient>
<linearGradient id="paint1_linear_26_308" x1="18.228" y1="4.28992" x2="18.6046" y2="17.4817" gradientUnits="userSpaceOnUse">
<stop stop-color="#FFBF00"/>
<stop offset="1" stop-color="#F2A50C"/>
</linearGradient>
</defs>
</svg>
