<svg width="134" height="35" viewBox="0 0 134 35" fill="none" xmlns="http://www.w3.org/2000/svg">
<path d="M5.05725 13.5518C5.70747 12.3898 6.5985 11.4457 7.73036 10.7194C8.88631 9.99316 10.1988 9.63004 11.6678 9.63004C13.3776 9.63004 14.9189 10.1384 16.2916 11.1552C17.6883 12.1719 18.7841 13.6244 19.5788 15.5126C20.3976 17.3718 20.807 19.536 20.807 22.0053C20.807 24.4745 20.3976 26.6678 19.5788 28.5851C18.7841 30.4733 17.6883 31.9403 16.2916 32.9861C14.9189 34.0319 13.3776 34.5548 11.6678 34.5548C10.1747 34.5548 8.86222 34.2062 7.73036 33.509C6.62259 32.7828 5.73155 31.8532 5.05725 30.7202V34.1627H0V1.9173H5.05725V13.5518ZM15.6413 22.0053C15.6413 20.5528 15.3885 19.3036 14.8828 18.2579C14.4011 17.183 13.7509 16.3696 12.9321 15.8177C12.1418 15.267 11.2438 14.9813 10.3312 14.9897C9.41611 14.9897 8.54916 15.2802 7.73036 15.8612C6.93565 16.4132 6.28544 17.2266 5.77971 18.3014C5.29807 19.3763 5.05725 20.6399 5.05725 22.0924C5.05725 23.5449 5.29807 24.8086 5.77971 25.8834C6.28544 26.9583 6.93565 27.7862 7.73036 28.3672C8.54916 28.9192 9.41611 29.1951 10.3312 29.1951C11.2704 29.1951 12.1374 28.9046 12.9321 28.3236C13.7509 27.7426 14.4011 26.9147 14.8828 25.8399C15.3885 24.765 15.6413 23.4868 15.6413 22.0053ZM27.0462 7.14628C26.1552 7.14628 25.4087 6.8122 24.8066 6.14406C24.2286 5.44686 23.9396 4.58989 23.9396 3.57314C23.9396 2.5564 24.2286 1.71395 24.8066 1.0458C25.4087 0.348606 26.1552 7.62939e-06 27.0462 7.62939e-06C27.9373 7.62939e-06 28.6718 0.348606 29.2498 1.0458C29.8518 1.71395 30.1528 2.5564 30.1528 3.57314C30.1528 4.58989 29.8518 5.44686 29.2498 6.14406C28.6718 6.8122 27.9373 7.14628 27.0462 7.14628ZM29.5387 10.0222V34.1627H24.4815V10.0222H29.5387ZM46.3842 34.1627L39.593 23.879V34.1627H34.5358V1.9173H39.593V20.2623L46.3119 10.0222H52.8864L44.0723 22.136L52.9586 34.1627H46.3842ZM53.3269 22.0924C53.3269 19.5941 53.7483 17.4154 54.5912 15.5562C55.4341 13.668 56.602 12.2155 58.0951 11.1987C59.5882 10.1529 61.2981 9.63004 63.2246 9.63004C65.7051 9.63004 67.7521 10.3853 69.3656 11.8959C71.0032 13.3775 72.0989 15.4691 72.6528 18.1707H67.1992C66.9102 17.1249 66.4165 16.3115 65.7181 15.7305C65.0438 15.1205 64.201 14.8154 63.1895 14.8154C61.7446 14.8154 60.6007 15.4545 59.7578 16.7327C58.9149 17.9819 58.4935 19.7684 58.4935 22.0924C58.4935 24.3874 58.9149 26.1739 59.7578 27.4521C60.6007 28.7013 61.7446 29.3259 63.1895 29.3259C65.2365 29.3259 66.573 28.222 67.1992 26.0142H72.6538C72.0999 28.6287 71.0042 30.7057 69.3666 32.2454C67.729 33.785 65.682 34.5548 63.2256 34.5548C61.2991 34.5548 59.5892 34.0465 58.0961 33.0297C56.6149 31.9987 55.4014 30.4897 54.5922 28.6722C53.7493 26.784 53.3269 24.5907 53.3269 22.0924ZM80.4122 13.7696C81.0324 12.5272 81.902 11.4931 82.9409 10.763C84.0005 10.0367 85.2046 9.67362 86.5532 9.67362V16.0791H85.2166C83.6272 16.0791 82.4231 16.5294 81.6043 17.4299C80.8096 18.3305 80.4122 19.8992 80.4122 22.136V34.1627H75.355V10.0222H80.4122V13.7696ZM102.06 30.7202C101.506 31.8241 100.603 32.7537 99.3508 33.509C98.0986 34.2353 96.75 34.5984 95.305 34.5984C94.0528 34.5984 92.9209 34.2934 91.9095 33.6833C90.898 33.0733 90.1033 32.2308 89.5253 31.156C88.9474 30.0812 88.6584 28.8465 88.6584 27.4521C88.6584 25.2153 89.3447 23.3852 90.7174 21.9617C92.1141 20.5383 94.1973 19.8265 96.9667 19.8265H102.06C102.012 18.2869 101.639 17.0668 100.94 16.1663C100.266 15.2367 99.3268 14.7719 98.1227 14.7719C97.063 14.7719 96.184 15.1205 95.4857 15.8177C94.7873 16.4858 94.3418 17.4299 94.1491 18.65H89.0919C89.3327 16.907 89.8504 15.3529 90.6451 13.9875C91.4568 12.6004 92.5518 11.4896 93.824 10.763C95.1485 9.97864 96.6296 9.58647 98.2671 9.58647C99.9529 9.58647 101.47 10.0077 102.819 10.8501C104.158 11.6549 105.275 12.9113 106.034 14.4668C106.804 16.0355 107.19 17.8802 107.19 20.0008V34.1627H102.06V30.7202ZM96.7861 29.6745C97.629 29.6745 98.4478 29.4566 99.2425 29.0208C100.061 28.5851 100.736 27.9315 101.265 27.06C101.795 26.1885 102.06 25.1572 102.06 23.9662V23.7919H97.2557C96.0997 23.7919 95.2328 24.0678 94.6548 24.6198C94.1009 25.1717 93.824 25.898 93.824 26.7985C93.824 27.67 94.0768 28.3672 94.5826 28.8901C95.1124 29.413 95.8469 29.6745 96.7861 29.6745ZM117.855 15.0333V34.1627H112.725V15.0333H110.45V10.0222H112.725V8.80212C112.725 5.83903 113.424 3.66029 114.821 2.2659C116.217 0.871504 118.325 0.217882 121.142 0.305031V5.44686C119.914 5.41781 119.059 5.66473 118.577 6.18763C118.096 6.71053 117.855 7.65465 117.855 9.01999V10.0222H124.427V4.05246H129.521V10.0222H134V15.0333H129.521V26.7114C129.521 27.5248 129.677 28.1203 129.99 28.4979C130.327 28.8465 130.881 29.0208 131.652 29.0208H134V34.1627H130.821C126.559 34.1627 124.427 31.6644 124.427 26.6678V15.0333H117.855Z" fill="white"/>
</svg>
